<svg width="36" height="36" viewBox="0 0 36 36" fill="none" xmlns="http://www.w3.org/2000/svg">
<g clip-path="url(#clip0_1281_1473)">
<path d="M1.5 1.5H7.5L11.52 21.585C11.6572 22.2756 12.0329 22.8959 12.5813 23.3374C13.1298 23.779 13.816 24.0135 14.52 24H29.1C29.804 24.0135 30.4902 23.779 31.0387 23.3374C31.5871 22.8959 31.9628 22.2756 32.1 21.585L34.5 9H9M15 31.5C15 32.3284 14.3284 33 13.5 33C12.6716 33 12 32.3284 12 31.5C12 30.6716 12.6716 30 13.5 30C14.3284 30 15 30.6716 15 31.5ZM31.5 31.5C31.5 32.3284 30.8284 33 30 33C29.1716 33 28.5 32.3284 28.5 31.5C28.5 30.6716 29.1716 30 30 30C30.8284 30 31.5 30.6716 31.5 31.5Z" stroke="white" stroke-width="3" stroke-linecap="round" stroke-linejoin="round"/>
</g>
<defs>
<clipPath id="clip0_1281_1473">
<rect width="36" height="36" fill="white"/>
</clipPath>
</defs>
</svg>
