<svg width="50" height="50" viewBox="0 0 50 50" fill="none" xmlns="http://www.w3.org/2000/svg">
<path d="M45.7993 20.8351C45.7223 18.1039 45.4639 16.3622 44.5889 14.8768C43.3431 12.7622 41.1014 11.5851 36.6202 9.23512L32.4535 7.04762C28.7952 5.12887 26.966 4.16846 24.9993 4.16846C23.0327 4.16846 21.2035 5.12679 17.5452 7.04762L13.3785 9.23512C8.89726 11.5851 6.6556 12.7622 5.40977 14.8768C4.16602 16.9893 4.16602 19.6205 4.16602 24.881V25.1247C4.16602 30.383 4.16602 33.0143 5.40977 35.1268C6.6556 37.2414 8.89726 38.4185 13.3785 40.7705L17.5452 42.956C21.2035 44.8747 23.0327 45.8351 24.9993 45.8351C26.966 45.8351 28.7952 44.8768 32.4535 42.956L36.6202 40.7685C41.1014 38.4164 43.3431 37.2414 44.5889 35.1268C45.4639 33.6414 45.7223 31.8997 45.7993 29.1685M43.7493 15.6268L35.416 19.7935M35.416 19.7935L34.3743 20.3143L24.9993 25.0018M35.416 19.7935V27.0851M35.416 19.7935L15.6243 9.37679M24.9993 25.0018L6.24935 15.6268M24.9993 25.0018V44.7935" stroke="#3A5B40" stroke-width="4" stroke-linecap="round"/>
</svg>
