<svg width="30" height="30" viewBox="0 0 30 30" fill="none" xmlns="http://www.w3.org/2000/svg">
<g clip-path="url(#clip0_50_4719)">
<path d="M21.2498 16.2505L16.2498 27.5005C15.2552 27.5005 14.3014 27.1054 13.5981 26.4021C12.8949 25.6988 12.4998 24.745 12.4998 23.7505V18.7505H5.42479C5.06241 18.7546 4.70346 18.6798 4.37283 18.5314C4.04219 18.383 3.74778 18.1645 3.50997 17.8911C3.27217 17.6176 3.09666 17.2957 2.99562 16.9476C2.89458 16.5996 2.87041 16.2338 2.92479 15.8755L4.64979 4.62545C4.7402 4.02932 5.043 3.48594 5.50241 3.09544C5.96182 2.70495 6.54688 2.49364 7.14979 2.50045H21.2498M21.2498 16.2505V2.50045M21.2498 16.2505H24.5873C25.2947 16.263 25.9822 16.0153 26.5191 15.5544C27.056 15.0936 27.405 14.4516 27.4998 13.7505V5.00045C27.405 4.29928 27.056 3.65733 26.5191 3.19647C25.9822 2.73562 25.2947 2.48794 24.5873 2.50045H21.2498" stroke="#1E1E1E" stroke-width="4" stroke-linecap="round" stroke-linejoin="round"/>
</g>
<defs>
<clipPath id="clip0_50_4719">
<rect width="30" height="30" fill="white"/>
</clipPath>
</defs>
</svg>
