<svg width="24" height="30" viewBox="0 0 24 30" fill="none" xmlns="http://www.w3.org/2000/svg">
<path d="M11.6667 14.5833C12.4688 14.5833 13.1554 14.2977 13.7266 13.7266C14.2977 13.1554 14.5833 12.4687 14.5833 11.6667C14.5833 10.8646 14.2977 10.178 13.7266 9.60677C13.1554 9.03559 12.4688 8.75 11.6667 8.75C10.8646 8.75 10.178 9.03559 9.60677 9.60677C9.03559 10.178 8.75 10.8646 8.75 11.6667C8.75 12.4687 9.03559 13.1554 9.60677 13.7266C10.178 14.2977 10.8646 14.5833 11.6667 14.5833ZM11.6667 25.3021C14.6319 22.5799 16.8316 20.1068 18.2656 17.8828C19.6997 15.6589 20.4167 13.684 20.4167 11.9583C20.4167 9.30903 19.572 7.13976 17.8828 5.45052C16.1936 3.76128 14.1215 2.91667 11.6667 2.91667C9.21181 2.91667 7.13976 3.76128 5.45052 5.45052C3.76128 7.13976 2.91667 9.30903 2.91667 11.9583C2.91667 13.684 3.63368 15.6589 5.06771 17.8828C6.50174 20.1068 8.70139 22.5799 11.6667 25.3021ZM11.6667 29.1667C7.75347 25.8368 4.83073 22.7439 2.89844 19.888C0.966146 17.0321 0 14.3889 0 11.9583C0 8.3125 1.17274 5.40799 3.51823 3.24479C5.86372 1.0816 8.57986 0 11.6667 0C14.7535 0 17.4696 1.0816 19.8151 3.24479C22.1606 5.40799 23.3333 8.3125 23.3333 11.9583C23.3333 14.3889 22.3672 17.0321 20.4349 19.888C18.5026 22.7439 15.5799 25.8368 11.6667 29.1667Z" fill="#3A5B40"/>
</svg>
