<svg width="50" height="50" viewBox="0 0 50 50" fill="none" xmlns="http://www.w3.org/2000/svg">
<path fill-rule="evenodd" clip-rule="evenodd" d="M43.5917 24.4798H37.9792C35.0125 24.4798 32.8104 26.6861 32.8104 29.1673C32.8104 31.6486 35.0125 33.8548 37.9771 33.8548H43.6396C44.0688 33.8278 44.2542 33.5382 44.2688 33.3632V24.9715C44.2542 24.7965 44.0688 24.5069 43.6396 24.4819L43.5917 24.4798ZM43.4375 21.3548C43.5764 21.3535 43.7083 21.3562 43.8333 21.3632C45.6458 21.4736 47.2521 22.8423 47.3875 24.7548C47.3958 24.8798 47.3958 25.0153 47.3958 25.1403V33.1944C47.3958 33.3194 47.3958 33.4548 47.3875 33.5798C47.2521 35.4923 45.6458 36.8611 43.8313 36.9736C43.7076 36.9791 43.5757 36.9812 43.4354 36.9798H37.9813C33.5125 36.9798 29.6875 33.5882 29.6875 29.1673C29.6875 24.7465 33.5125 21.3548 37.9792 21.3548H43.4375Z" fill="#3A5B40"/>
<path d="M39.5827 29.1678C39.5827 29.7203 39.3632 30.2502 38.9725 30.6409C38.5818 31.0316 38.0519 31.2511 37.4993 31.2511C36.9468 31.2511 36.4169 31.0316 36.0262 30.6409C35.6355 30.2502 35.416 29.7203 35.416 29.1678C35.416 28.6153 35.6355 28.0854 36.0262 27.6947C36.4169 27.304 36.9468 27.0845 37.4993 27.0845C38.0519 27.0845 38.5818 27.304 38.9725 27.6947C39.3632 28.0854 39.5827 28.6153 39.5827 29.1678Z" fill="#3A5B40"/>
<path fill-rule="evenodd" clip-rule="evenodd" d="M43.4368 21.3547C43.5757 21.3533 43.7077 21.3561 43.8327 21.363C44.3014 21.3901 44.7556 21.5026 45.1764 21.688C44.9535 18.3422 44.3389 15.763 42.4139 13.8359C40.8535 12.2776 38.8764 11.5859 36.4348 11.2568L36.3473 11.2463L36.2806 11.1984L28.4973 6.038C27.1469 5.15767 25.5697 4.68896 23.9577 4.68896C22.3457 4.68896 20.7685 5.15767 19.4181 6.038L11.6368 11.1984L11.5681 11.2463L11.4806 11.2568C9.03893 11.5859 7.06185 12.2776 5.50143 13.8359C3.9431 15.3963 3.25143 17.3734 2.92227 19.8151C2.60352 22.1901 2.60352 25.2213 2.60352 29.0505V29.2838C2.60352 33.113 2.60352 36.1463 2.92227 38.5193C3.25143 40.9609 3.9431 42.938 5.50143 44.4984C7.06185 46.0567 9.03893 46.7484 11.4806 47.0776C13.8556 47.3963 16.8868 47.3963 20.716 47.3963H27.1993C31.0285 47.3963 34.0618 47.3963 36.4348 47.0776C38.8764 46.7484 40.8535 46.0567 42.4139 44.4984C44.3389 42.5713 44.9535 39.9922 45.1764 36.6443C44.7528 36.8331 44.3042 36.9429 43.8306 36.9734C43.707 36.979 43.575 36.9811 43.4348 36.9797H42.016C41.7785 39.7755 41.2431 41.2505 40.2035 42.288C39.3223 43.1693 38.1139 43.6984 36.0181 43.9797C33.8785 44.2672 31.0556 44.2713 27.0827 44.2713H20.8327C16.8598 44.2713 14.0389 44.2672 11.8952 43.9797C9.80143 43.6984 8.5931 43.1693 7.71185 42.288C6.8306 41.4068 6.30143 40.1984 6.02018 38.1026C5.73268 35.963 5.72852 33.1401 5.72852 29.1672C5.72852 25.1943 5.73268 22.3734 6.02018 20.2297C6.30143 18.1359 6.8306 16.9276 7.71185 16.0463C8.5931 15.1651 9.80143 14.6359 11.8973 14.3547C14.0389 14.0672 16.8598 14.063 20.8327 14.063H27.0827C31.0556 14.063 33.8785 14.0672 36.0202 14.3547C38.1139 14.6359 39.3223 15.1651 40.2035 16.0463C41.2431 17.0838 41.7785 18.5609 42.016 21.3547H43.4368ZM20.716 10.938H27.1993C28.2757 10.938 29.2896 10.9401 30.241 10.9443L26.7702 8.64217C25.1035 7.538 22.8118 7.538 21.1452 8.64217L17.6723 10.9443C18.625 10.9387 19.6389 10.9366 20.7139 10.938" fill="#3A5B40"/>
<path d="M12.5 19.2729C12.0856 19.2729 11.6882 19.4376 11.3951 19.7306C11.1021 20.0236 10.9375 20.421 10.9375 20.8354C10.9375 21.2498 11.1021 21.6473 11.3951 21.9403C11.6882 22.2333 12.0856 22.3979 12.5 22.3979H20.8333C21.2477 22.3979 21.6452 22.2333 21.9382 21.9403C22.2312 21.6473 22.3958 21.2498 22.3958 20.8354C22.3958 20.421 22.2312 20.0236 21.9382 19.7306C21.6452 19.4376 21.2477 19.2729 20.8333 19.2729H12.5Z" fill="#3A5B40"/>
<path d="M39.5827 29.1678C39.5827 29.7203 39.3632 30.2502 38.9725 30.6409C38.5818 31.0316 38.0519 31.2511 37.4993 31.2511C36.9468 31.2511 36.4169 31.0316 36.0262 30.6409C35.6355 30.2502 35.416 29.7203 35.416 29.1678C35.416 28.6153 35.6355 28.0854 36.0262 27.6947C36.4169 27.304 36.9468 27.0845 37.4993 27.0845C38.0519 27.0845 38.5818 27.304 38.9725 27.6947C39.3632 28.0854 39.5827 28.6153 39.5827 29.1678Z" fill="#3A5B40"/>
</svg>
