<svg width="144" height="24" viewBox="0 0 144 24" fill="none" xmlns="http://www.w3.org/2000/svg">
<path d="M5.825 22L7.45 14.975L2 10.25L9.2 9.625L12 3L14.8 9.625L22 10.25L16.55 14.975L18.175 22L12 18.275L5.825 22Z" fill="#3A5B40"/>
<path d="M35.825 22L37.45 14.975L32 10.25L39.2 9.625L42 3L44.8 9.625L52 10.25L46.55 14.975L48.175 22L42 18.275L35.825 22Z" fill="#3A5B40"/>
<path d="M65.825 22L67.45 14.975L62 10.25L69.2 9.625L72 3L74.8 9.625L82 10.25L76.55 14.975L78.175 22L72 18.275L65.825 22Z" fill="#3A5B40"/>
<path d="M95.825 22L97.45 14.975L92 10.25L99.2 9.625L102 3L104.8 9.625L112 10.25L106.55 14.975L108.175 22L102 18.275L95.825 22Z" fill="#3A5B40"/>
<path d="M125.825 22L127.45 14.975L122 10.25L129.2 9.625L132 3L134.8 9.625L142 10.25L136.55 14.975L138.175 22L132 18.275L125.825 22Z" fill="#3A5B40"/>
</svg>
