<svg width="36" height="36" viewBox="0 0 36 36" fill="none" xmlns="http://www.w3.org/2000/svg">
<path d="M27.4973 33.4001C26.1245 33.4001 24.1961 32.9037 21.3085 31.2907C17.7971 29.3219 15.0811 27.5043 11.5886 24.0217C8.22138 20.6572 6.58277 18.4789 4.28941 14.3065C1.69857 9.59553 2.14022 7.12613 2.63391 6.07073C3.22185 4.8093 4.08968 4.05484 5.21139 3.30601C5.84852 2.88865 6.52276 2.53088 7.22556 2.23724C7.29588 2.20701 7.36129 2.17818 7.41966 2.15216C7.76778 1.99536 8.29523 1.75841 8.96333 2.01154C9.40921 2.17888 9.80726 2.52131 10.4304 3.13655C11.7082 4.39657 13.4544 7.20277 14.0986 8.58091C14.5311 9.50975 14.8173 10.1229 14.818 10.8105C14.818 11.6156 14.413 12.2365 13.9214 12.9066C13.8293 13.0324 13.7378 13.1527 13.6492 13.2694C13.114 13.9725 12.9966 14.1757 13.0739 14.5386C13.2308 15.2677 14.4003 17.4383 16.3223 19.3557C18.2444 21.2732 20.3528 22.3687 21.0849 22.5247C21.4632 22.6056 21.6707 22.4833 22.3965 21.9292C22.5006 21.8497 22.6075 21.7675 22.7193 21.6852C23.469 21.1276 24.0611 20.7332 24.8474 20.7332H24.8516C25.5359 20.7332 26.1217 21.0299 27.0922 21.5193C28.3581 22.1577 31.2492 23.8811 32.5172 25.1601C33.134 25.7817 33.4779 26.1782 33.646 26.6233C33.8991 27.2934 33.6607 27.8186 33.5053 28.1702C33.4793 28.2286 33.4504 28.2926 33.4202 28.3636C33.1242 29.065 32.7642 29.7377 32.3449 30.3731C31.5973 31.4911 30.8399 32.3567 29.5754 32.9452C28.9261 33.2523 28.2155 33.4079 27.4973 33.4001Z" fill="white"/>
</svg>
