<svg width="34" height="34" viewBox="0 0 34 34" fill="none" xmlns="http://www.w3.org/2000/svg">
<path d="M31.8432 6.91148C31.8508 6.82114 31.8545 6.73053 31.8545 6.64015C31.8545 4.15224 29.8304 2.12817 27.3425 2.12817C27.2913 2.12817 27.2417 2.13017 27.1259 2.13525L6.81368 2.13382C6.75498 2.131 6.69538 2.12817 6.63359 2.12817C4.14959 2.12817 2.12892 4.14825 2.12892 6.63424L2.13516 6.99788H2.125L2.13798 26.7528L2.1326 27.4296C2.1326 29.8876 4.1321 31.8871 6.58979 31.8871C6.64517 31.8871 6.82245 31.8791 6.82553 31.8791L27.044 31.882C27.1432 31.8938 27.2504 31.8975 27.3611 31.8975C28.5503 31.8975 29.6692 31.4342 30.5114 30.5925C31.3539 29.7512 31.8178 28.634 31.8178 27.4451L31.8129 27.0462H31.8434L31.8432 6.91145V6.91148ZM6.68665 29.9485L6.60081 29.9417C5.18888 29.9417 4.07253 28.7842 4.05955 27.3084V11.0457H29.9098L29.9251 27.1554L29.8957 27.2505C29.8779 27.3115 29.8691 27.3694 29.8691 27.4222C29.8691 28.763 28.8214 29.8714 27.4834 29.9457L27.1243 29.9663V29.9488L6.68665 29.9485ZM29.9095 9.11172H4.06151L4.04905 6.92251L4.07728 6.82542C4.09454 6.76499 4.10324 6.70489 4.10324 6.6512C4.10324 5.24884 5.25629 4.10569 6.69903 4.1009L6.71397 4.09865L27.2394 4.09924L27.3278 4.10598C28.7332 4.10598 29.8767 5.24947 29.8767 6.65492C29.8767 6.69895 29.8832 6.74414 29.8984 6.8054L29.9094 6.83475V9.11172H29.9095Z" fill="#3A5B40"/>
<path d="M23.1641 15.6531C22.9024 15.6531 22.6556 15.7553 22.4696 15.9413L15.051 23.3602L11.5075 19.8169C11.3234 19.6309 11.0775 19.5284 10.8154 19.5284C10.5534 19.5284 10.3067 19.6306 10.1209 19.8161C9.93569 19.9993 9.8329 20.2444 9.83203 20.5064C9.83147 20.7689 9.93397 21.0163 10.1206 21.2034L14.3556 25.4388C14.5406 25.6234 14.7876 25.725 15.051 25.725C15.3141 25.725 15.5611 25.6234 15.7461 25.4385L23.8558 17.3287C24.041 17.1458 24.1438 16.901 24.1447 16.6387C24.1453 16.375 24.0425 16.1271 23.8564 15.9419C23.6721 15.7555 23.4262 15.6531 23.1642 15.6531H23.1641Z" fill="#3A5B40"/>
</svg>
