<svg width="50" height="50" viewBox="0 0 50 50" fill="none" xmlns="http://www.w3.org/2000/svg">
<g clip-path="url(#clip0_1425_1180)">
<path d="M16.6667 39.5843C17.7717 39.5843 18.8315 39.1453 19.6129 38.3639C20.3943 37.5825 20.8333 36.5227 20.8333 35.4176C20.8333 34.3126 20.3943 33.2528 19.6129 32.4714C18.8315 31.69 17.7717 31.251 16.6667 31.251C15.5616 31.251 14.5018 31.69 13.7204 32.4714C12.939 33.2528 12.5 34.3126 12.5 35.4176C12.5 36.5227 12.939 37.5825 13.7204 38.3639C14.5018 39.1453 15.5616 39.5843 16.6667 39.5843ZM37.5 39.5843C38.6051 39.5843 39.6649 39.1453 40.4463 38.3639C41.2277 37.5825 41.6667 36.5227 41.6667 35.4176C41.6667 34.3126 41.2277 33.2528 40.4463 32.4714C39.6649 31.69 38.6051 31.251 37.5 31.251C36.3949 31.251 35.3351 31.69 34.5537 32.4714C33.7723 33.2528 33.3333 34.3126 33.3333 35.4176C33.3333 36.5227 33.7723 37.5825 34.5537 38.3639C35.3351 39.1453 36.3949 39.5843 37.5 39.5843Z" stroke="#3A5B40" stroke-width="4" stroke-miterlimit="1.5" stroke-linecap="round" stroke-linejoin="round"/>
<path d="M20.9382 35.4172H31.2507V13.7505C31.2507 13.419 31.119 13.101 30.8845 12.8666C30.6501 12.6322 30.3322 12.5005 30.0007 12.5005H2.08398M11.7715 35.4172H7.50065C7.3365 35.4172 7.17395 35.3848 7.0223 35.322C6.87064 35.2592 6.73284 35.1671 6.61677 35.051C6.50069 34.935 6.40862 34.7972 6.3458 34.6455C6.28298 34.4939 6.25065 34.3313 6.25065 34.1672V23.9588" stroke="#3A5B40" stroke-width="4" stroke-linecap="round"/>
<path d="M4.16797 18.7505H12.5013" stroke="#3A5B40" stroke-width="4" stroke-linecap="round" stroke-linejoin="round"/>
<path d="M31.25 18.7505H42.9375C43.1791 18.7505 43.4155 18.8206 43.6182 18.9523C43.8208 19.0839 43.9809 19.2714 44.0792 19.4922L47.8083 27.8838C47.8794 28.0432 47.9163 28.2156 47.9167 28.3901V34.1672C47.9167 34.3313 47.8843 34.4939 47.8215 34.6455C47.7587 34.7972 47.6666 34.935 47.5506 35.051C47.4345 35.1671 47.2967 35.2592 47.145 35.322C46.9934 35.3848 46.8308 35.4172 46.6667 35.4172H42.7083M31.25 35.4172H33.3333" stroke="#3A5B40" stroke-width="4" stroke-linecap="round"/>
</g>
<defs>
<clipPath id="clip0_1425_1180">
<rect width="50" height="50" fill="white"/>
</clipPath>
</defs>
</svg>
