<svg width="30" height="30" viewBox="0 0 30 30" fill="none" xmlns="http://www.w3.org/2000/svg">
<g clip-path="url(#clip0_50_4721)">
<path d="M8.75 13.75L13.75 2.5C14.7446 2.5 15.6984 2.89509 16.4017 3.59835C17.1049 4.30161 17.5 5.25544 17.5 6.25V11.25H24.575C24.9374 11.2459 25.2963 11.3206 25.627 11.469C25.9576 11.6174 26.252 11.8359 26.4898 12.1094C26.7276 12.3829 26.9031 12.7048 27.0042 13.0528C27.1052 13.4009 27.1294 13.7667 27.075 14.125L25.35 25.375C25.2596 25.9711 24.9568 26.5145 24.4974 26.905C24.038 27.2955 23.4529 27.5068 22.85 27.5H8.75M8.75 13.75V27.5M8.75 13.75H5C4.33696 13.75 3.70107 14.0134 3.23223 14.4822C2.76339 14.9511 2.5 15.587 2.5 16.25V25C2.5 25.663 2.76339 26.2989 3.23223 26.7678C3.70107 27.2366 4.33696 27.5 5 27.5H8.75" stroke="#1E1E1E" stroke-width="4" stroke-linecap="round" stroke-linejoin="round"/>
</g>
<defs>
<clipPath id="clip0_50_4721">
<rect width="30" height="30" fill="white"/>
</clipPath>
</defs>
</svg>
