<svg width="118" height="20" viewBox="0 0 118 20" fill="none" xmlns="http://www.w3.org/2000/svg">
<g clip-path="url(#clip0_1390_2841)">
<path d="M1.28593 16.1411C0.576407 16.1411 0 15.5495 0 14.8184V5.19482C0 4.46498 0.576407 3.87207 1.28593 3.87207C1.99545 3.87207 2.57186 4.46498 2.57186 5.19482V14.8184C2.57186 15.5495 1.99545 16.1411 1.28593 16.1411Z" fill="#89C8E9"/>
<path d="M16.7176 16.1412C16.0068 16.1412 15.4316 15.5495 15.4316 14.8184V5.20263C15.4316 4.4728 16.0068 3.87988 16.7176 3.87988C17.4283 3.87988 18.0035 4.4728 18.0035 5.20263V14.8184C18.0035 15.5495 17.4283 16.1412 16.7176 16.1412Z" fill="#0EAEDD"/>
<mask id="mask0_1390_2841" style="mask-type:luminance" maskUnits="userSpaceOnUse" x="7" y="0" width="4" height="20">
<path d="M7.71484 0H10.2867V20.0002H7.71484V0Z" fill="white"/>
</mask>
<g mask="url(#mask0_1390_2841)">
<path d="M9.00077 20C8.29 20 7.71484 19.4071 7.71484 18.6772V1.34326C7.71484 0.612129 8.29 0.0205078 9.00077 0.0205078C9.71155 0.0205078 10.2867 0.612129 10.2867 1.34326V18.6772C10.2867 19.4071 9.71155 20 9.00077 20Z" fill="#2E80C3"/>
</g>
<path d="M49.1836 4.73673C49.1836 4.26007 49.5591 3.85059 50.0237 3.85059C50.5097 3.85059 50.8864 4.23682 50.8864 4.73673V15.0966C50.8864 15.5965 50.5323 15.9827 50.0463 15.9827C49.5591 15.9827 49.1836 15.5965 49.1836 15.0966" fill="#808285"/>
<path d="M65.2788 15.097C65.2788 15.5969 64.9034 15.9831 64.4387 15.9831C63.9527 15.9831 63.576 15.5969 63.576 15.097V13.835C62.6467 15.2455 61.298 16.1201 59.1971 16.1201C56.4557 16.1201 53.7344 13.8918 53.7344 10.0243V9.97779C53.7344 6.13354 56.4557 3.85877 59.1971 3.85877C61.3206 3.85877 62.6907 4.71133 63.576 6.0302V0.887747C63.576 0.386548 63.9289 -0.000976562 64.4174 -0.000976562C64.9034 -0.000976562 65.2788 0.386548 65.2788 0.887747V15.097ZM55.4824 9.95583V10.001C55.4824 12.7757 57.3624 14.5506 59.5072 14.5506C61.6308 14.5506 63.6426 12.7085 63.6426 10.001V9.95583C63.6426 7.24832 61.6308 5.42825 59.5072 5.42825C57.2958 5.42825 55.4824 7.11269 55.4824 9.95583Z" fill="#808285"/>
<mask id="mask1_1390_2841" style="mask-type:luminance" maskUnits="userSpaceOnUse" x="108" y="3" width="10" height="14">
<path d="M108.982 3.6377H118V16.2038H108.982V3.6377Z" fill="white"/>
</mask>
<g mask="url(#mask1_1390_2841)">
<path d="M109.53 14.6184C109.375 14.5047 109.221 14.2774 109.221 13.9815C109.221 13.5721 109.552 13.2298 109.973 13.2298C110.127 13.2298 110.282 13.2763 110.394 13.368C111.565 14.1856 112.781 14.6184 114.019 14.6184C115.39 14.6184 116.386 13.8911 116.386 12.7531V12.7079C116.386 11.5246 115.038 11.0699 113.533 10.6372C111.742 10.1141 109.752 9.47722 109.752 7.31612V7.27091C109.752 5.24545 111.388 3.90332 113.644 3.90332C114.86 3.90332 116.188 4.29085 117.293 4.90443C117.514 5.04135 117.712 5.29195 117.712 5.63297C117.712 6.04246 117.381 6.38348 116.961 6.38348C116.806 6.38348 116.674 6.33827 116.585 6.29306C115.613 5.72339 114.573 5.38237 113.6 5.38237C112.251 5.38237 111.388 6.11092 111.388 7.08877V7.13399C111.388 8.24876 112.803 8.68021 114.329 9.15816C116.099 9.70457 118 10.4099 118 12.5257V12.571C118 14.8005 116.209 16.0974 113.931 16.0974C112.428 16.0974 110.769 15.5278 109.53 14.6184Z" fill="#808285"/>
</g>
<path d="M106.764 8.80967C106.764 6.16288 104.508 3.8584 101.788 3.8584C99.0362 3.8584 96.8047 6.15384 96.8047 8.98406V15.0449C96.8047 15.5681 97.1977 15.9724 97.7063 15.9724C98.2149 15.9724 98.5841 15.5681 98.5841 15.0449L98.5829 12.3232V8.80838C98.5829 6.99089 100.016 5.51571 101.784 5.51571C103.552 5.51571 104.985 6.99089 104.985 8.80838V15.0449C104.985 15.5681 105.378 15.9724 105.863 15.9724C106.371 15.9724 106.764 15.5681 106.764 15.0449C106.764 15.0449 106.781 9.37933 106.764 8.80967Z" fill="#808285"/>
<path d="M88.221 14.5476C86.6726 14.5476 85.452 13.8681 85.452 12.3891V12.3438C85.452 10.8648 86.6463 9.9089 88.7912 9.9089C90.1838 9.9089 92.1504 10.3688 92.1517 10.4101V10.4127C92.1517 12.5686 90.1939 14.5476 88.221 14.5476ZM93.7666 8.68174H93.7628C93.6084 6.15637 91.4233 4.01465 88.8012 4.01465H88.0389C87.5931 4.01465 87.2327 4.38538 87.2327 4.84395C87.2327 5.30123 87.5931 5.67196 88.0389 5.67196H88.7974C90.5656 5.67196 92.1303 7.14714 92.1303 8.96463V9.11318C91.1131 8.81737 90.0733 8.61328 88.6141 8.61328C85.717 8.61328 83.7266 9.93215 83.7266 12.4123V12.4575C83.7266 14.8692 85.7936 16.1196 87.9159 16.1196C89.8448 16.1196 91.3643 15.103 92.1517 13.7945V15.1418C92.1517 15.6003 92.5133 15.9724 92.9591 15.9724C93.4049 15.9724 93.7666 15.6003 93.7666 15.1418" fill="#808285"/>
<path d="M83.4049 4.842C83.4049 4.38343 83.0433 4.0127 82.5987 4.0127H82.0474C79.296 4.0127 77.0645 6.30813 77.0645 9.13836V15.0455C77.0645 15.5687 77.4575 15.973 77.9661 15.973C78.4747 15.973 78.8439 15.5687 78.8439 15.0455L78.8427 12.3238V8.96268C78.8427 7.14519 80.2768 5.67001 82.0437 5.67001C82.0449 5.67001 82.0462 5.67001 82.0487 5.67001V5.6713H82.5987C83.0433 5.6713 83.4049 5.30057 83.4049 4.842Z" fill="#808285"/>
<path d="M74.2402 4.79922C74.2402 4.37165 73.9024 4.02547 73.4879 4.02547H70.5017V0.938184C70.5017 0.453778 70.1174 0.00683215 69.6465 0.00295689C69.1567 -0.000918363 68.7988 0.409858 68.7988 0.890389V12.7538C68.7988 15.1423 70.1915 16.0749 72.0275 16.0749C72.6918 16.0749 73.2217 15.9612 73.7077 15.7571C73.9965 15.6422 74.195 15.3929 74.195 15.0738C74.195 14.6643 73.8634 14.3233 73.4653 14.3233C73.3322 14.3233 73.022 14.4822 72.4255 14.4822C71.2765 14.4822 70.5017 13.959 70.5017 12.5265V5.57298H73.4879C73.9024 5.57298 74.2402 5.22679 74.2402 4.79922Z" fill="#808285"/>
<path d="M40.8878 3.85059C39.2566 3.85059 37.8187 4.69281 36.9585 5.9781C36.1045 4.69927 34.6842 3.85834 33.0592 3.85834C30.4259 3.85834 28.291 6.05431 28.291 8.76311V15.0966C28.291 15.5965 28.6665 15.9827 29.1525 15.9827C29.6397 15.9827 29.9939 15.5965 29.9939 15.0966L29.9926 8.59518C29.9926 6.85519 31.3639 5.4446 33.0567 5.4446C34.7483 5.4446 36.1196 6.85519 36.1196 8.59518L36.1184 14.3706H36.1196C36.1196 14.3719 36.1184 14.3719 36.1184 14.3732C36.1184 14.8576 36.5001 15.249 36.9698 15.249C37.4407 15.249 37.8225 14.8576 37.8225 14.3732L37.8199 8.58743C37.8199 6.84744 39.1925 5.43685 40.8841 5.43685C42.5756 5.43685 43.9482 6.84744 43.9482 8.58743V15.0875C43.9482 15.5887 44.3237 15.9749 44.7871 15.9749C45.2743 15.9749 45.6498 15.5887 45.6498 15.0875L45.6561 8.76311C45.6561 5.97035 43.412 3.85059 40.8878 3.85059Z" fill="#808285"/>
</g>
<defs>
<clipPath id="clip0_1390_2841">
<rect width="118" height="20" fill="white"/>
</clipPath>
</defs>
</svg>
