<svg width="45" height="45" viewBox="0 0 45 45" fill="none" xmlns="http://www.w3.org/2000/svg">
<path d="M36.75 39.375L24.9375 27.5625C24 28.3125 22.9219 28.9063 21.7031 29.3438C20.4844 29.7813 19.1875 30 17.8125 30C14.4062 30 11.5234 28.8203 9.16406 26.4609C6.80469 24.1016 5.625 21.2188 5.625 17.8125C5.625 14.4062 6.80469 11.5234 9.16406 9.16406C11.5234 6.80469 14.4062 5.625 17.8125 5.625C21.2188 5.625 24.1016 6.80469 26.4609 9.16406C28.8203 11.5234 30 14.4062 30 17.8125C30 19.1875 29.7813 20.4844 29.3438 21.7031C28.9063 22.9219 28.3125 24 27.5625 24.9375L39.375 36.75L36.75 39.375ZM17.8125 26.25C20.1562 26.25 22.1484 25.4297 23.7891 23.7891C25.4297 22.1484 26.25 20.1562 26.25 17.8125C26.25 15.4688 25.4297 13.4766 23.7891 11.8359C22.1484 10.1953 20.1562 9.375 17.8125 9.375C15.4688 9.375 13.4766 10.1953 11.8359 11.8359C10.1953 13.4766 9.375 15.4688 9.375 17.8125C9.375 20.1562 10.1953 22.1484 11.8359 23.7891C13.4766 25.4297 15.4688 26.25 17.8125 26.25Z" fill="#3A5B40"/>
</svg>
