<svg width="34" height="34" viewBox="0 0 34 34" fill="none" xmlns="http://www.w3.org/2000/svg">
<path d="M6.545 25.67C7.99 24.565 9.605 23.6938 11.39 23.0563C13.175 22.4188 15.045 22.1 17 22.1C18.955 22.1 20.825 22.4188 22.61 23.0563C24.395 23.6938 26.01 24.565 27.455 25.67C28.4467 24.5083 29.2188 23.1908 29.7713 21.7175C30.3238 20.2442 30.6 18.6717 30.6 17C30.6 13.2317 29.2754 10.0229 26.6263 7.37375C23.9771 4.72458 20.7683 3.4 17 3.4C13.2317 3.4 10.0229 4.72458 7.37375 7.37375C4.72458 10.0229 3.4 13.2317 3.4 17C3.4 18.6717 3.67625 20.2442 4.22875 21.7175C4.78125 23.1908 5.55333 24.5083 6.545 25.67ZM17 18.7C15.3283 18.7 13.9188 18.1263 12.7713 16.9788C11.6238 15.8313 11.05 14.4217 11.05 12.75C11.05 11.0783 11.6238 9.66875 12.7713 8.52125C13.9188 7.37375 15.3283 6.8 17 6.8C18.6717 6.8 20.0813 7.37375 21.2288 8.52125C22.3763 9.66875 22.95 11.0783 22.95 12.75C22.95 14.4217 22.3763 15.8313 21.2288 16.9788C20.0813 18.1263 18.6717 18.7 17 18.7ZM17 34C14.6483 34 12.4383 33.5537 10.37 32.6613C8.30167 31.7687 6.5025 30.5575 4.9725 29.0275C3.4425 27.4975 2.23125 25.6983 1.33875 23.63C0.44625 21.5617 0 19.3517 0 17C0 14.6483 0.44625 12.4383 1.33875 10.37C2.23125 8.30167 3.4425 6.5025 4.9725 4.9725C6.5025 3.4425 8.30167 2.23125 10.37 1.33875C12.4383 0.44625 14.6483 0 17 0C19.3517 0 21.5617 0.44625 23.63 1.33875C25.6983 2.23125 27.4975 3.4425 29.0275 4.9725C30.5575 6.5025 31.7687 8.30167 32.6613 10.37C33.5537 12.4383 34 14.6483 34 17C34 19.3517 33.5537 21.5617 32.6613 23.63C31.7687 25.6983 30.5575 27.4975 29.0275 29.0275C27.4975 30.5575 25.6983 31.7687 23.63 32.6613C21.5617 33.5537 19.3517 34 17 34Z" fill="#3A5B40"/>
</svg>
