<svg width="26" height="26" viewBox="0 0 26 26" fill="none" xmlns="http://www.w3.org/2000/svg">
<g clip-path="url(#clip0_1281_1377)">
<path d="M17.333 22.75V20.5833C17.333 19.4341 16.8765 18.3319 16.0638 17.5192C15.2511 16.7065 14.1489 16.25 12.9997 16.25H5.41634C4.26707 16.25 3.16487 16.7065 2.35221 17.5192C1.53955 18.3319 1.08301 19.4341 1.08301 20.5833V22.75M21.6663 8.66667V15.1667M24.9163 11.9167H18.4163M13.5413 7.58333C13.5413 9.97657 11.6012 11.9167 9.20801 11.9167C6.81477 11.9167 4.87467 9.97657 4.87467 7.58333C4.87467 5.1901 6.81477 3.25 9.20801 3.25C11.6012 3.25 13.5413 5.1901 13.5413 7.58333Z" stroke="white" stroke-width="2.5" stroke-linecap="round" stroke-linejoin="round"/>
</g>
<defs>
<clipPath id="clip0_1281_1377">
<rect width="26" height="26" fill="white"/>
</clipPath>
</defs>
</svg>
