<svg width="42" height="42" viewBox="0 0 42 42" fill="none" xmlns="http://www.w3.org/2000/svg">
<path fill-rule="evenodd" clip-rule="evenodd" d="M15.8161 2.5012C15.4873 2.79632 15.1431 3.07379 14.7849 3.33245C14.1641 3.74912 13.4661 4.03662 12.7328 4.18245C12.4141 4.24495 12.0807 4.27204 11.4161 4.32412C9.7474 4.45745 8.91198 4.52412 8.21615 4.76995C7.4203 5.05047 6.69745 5.50581 6.10077 6.10249C5.50409 6.69918 5.04874 7.42202 4.76823 8.21787C4.5224 8.9137 4.45573 9.74912 4.3224 11.4179C4.29847 11.859 4.25118 12.2985 4.18073 12.7345C4.0349 13.4679 3.7474 14.1658 3.33073 14.7866C3.14948 15.0575 2.93281 15.3116 2.49948 15.8179C1.41406 17.0929 0.870313 17.7304 0.551563 18.397C-0.183854 19.9387 -0.183854 21.7304 0.551563 23.272C0.870313 23.9387 1.41406 24.5762 2.49948 25.8512C2.93281 26.3575 3.14948 26.6116 3.33073 26.8825C3.7474 27.5033 4.0349 28.2012 4.18073 28.9345C4.24323 29.2533 4.27031 29.5866 4.3224 30.2512C4.45573 31.92 4.5224 32.7554 4.76823 33.4512C5.04874 34.247 5.50409 34.9699 6.10077 35.5666C6.69745 36.1633 7.4203 36.6186 8.21615 36.8991C8.91198 37.145 9.7474 37.2116 11.4161 37.345C12.0807 37.397 12.4141 37.4241 12.7328 37.4866C13.4661 37.6325 14.1641 37.922 14.7849 38.3366C15.0557 38.5179 15.3099 38.7345 15.8161 39.1679C17.0911 40.2533 17.7286 40.797 18.3953 41.1158C19.937 41.8512 21.7286 41.8512 23.2703 41.1158C23.937 40.797 24.5745 40.2533 25.8495 39.1679C26.3557 38.7345 26.6099 38.5179 26.8807 38.3366C27.5016 37.92 28.1995 37.6325 28.9328 37.4866C29.2516 37.4241 29.5849 37.397 30.2495 37.345C31.9182 37.2116 32.7536 37.145 33.4495 36.8991C34.2453 36.6186 34.9682 36.1633 35.5649 35.5666C36.1615 34.9699 36.6169 34.247 36.8974 33.4512C37.1432 32.7554 37.2099 31.92 37.3432 30.2512C37.3953 29.5866 37.4224 29.2533 37.4849 28.9345C37.6307 28.2012 37.9203 27.5033 38.3349 26.8825C38.5161 26.6116 38.7328 26.3575 39.1661 25.8512C40.2516 24.5762 40.7953 23.9387 41.1141 23.272C41.8495 21.7304 41.8495 19.9387 41.1141 18.397C40.7953 17.7304 40.2516 17.0929 39.1661 15.8179C38.871 15.4891 38.5936 15.1448 38.3349 14.7866C37.918 14.1659 37.629 13.4683 37.4849 12.7345C37.4144 12.2985 37.3672 11.859 37.3432 11.4179C37.2099 9.74912 37.1432 8.9137 36.8974 8.21787C36.6169 7.42202 36.1615 6.69918 35.5649 6.10249C34.9682 5.50581 34.2453 5.05047 33.4495 4.76995C32.7536 4.52412 31.9182 4.45745 30.2495 4.32412C29.8084 4.3002 29.3689 4.25291 28.9328 4.18245C28.1991 4.03833 27.5015 3.74936 26.8807 3.33245C26.5225 3.07379 26.1783 2.79632 25.8495 2.5012C24.5745 1.41579 23.937 0.872037 23.2703 0.553287C22.5094 0.189062 21.6764 0 20.8328 0C19.9892 0 19.1563 0.189062 18.3953 0.553287C17.7286 0.872037 17.0911 1.41579 15.8161 2.5012ZM29.9432 16.3825C30.2377 16.0602 30.3965 15.6368 30.3867 15.2004C30.3768 14.7639 30.1991 14.3481 29.8904 14.0394C29.5817 13.7308 29.1659 13.553 28.7295 13.5432C28.2931 13.5333 27.8697 13.6922 27.5474 13.9866L17.4432 24.0908L14.1182 20.7679C13.796 20.4734 13.3726 20.3146 12.9361 20.3244C12.4997 20.3343 12.0839 20.512 11.7752 20.8207C11.4665 21.1294 11.2888 21.5452 11.279 21.9816C11.2691 22.418 11.4279 22.8414 11.7224 23.1637L16.2432 27.6845C16.5612 28.0018 16.992 28.18 17.4411 28.18C17.8903 28.18 18.3211 28.0018 18.6391 27.6845L29.9432 16.3825Z" fill="#3A5B40"/>
</svg>
